<svg width="24" height="24" viewBox="0 0 24 24" fill="none" xmlns="http://www.w3.org/2000/svg">
<g clip-path="url(#clip0_422_1434)">
<path fill-rule="evenodd" clip-rule="evenodd" d="M12.0538 2.16268C13.3927 2.30918 14.7228 2.7299 15.9611 3.44483C20.744 6.20626 22.3828 12.3222 19.6214 17.1051C16.8599 21.888 10.744 23.5268 5.9611 20.7653C4.72282 20.0504 3.69342 19.1089 2.89711 18.0226C2.66188 17.7018 2.63924 17.272 2.83946 16.9282C3.03969 16.5843 3.42467 16.3919 3.81984 16.4382C6.88717 16.7971 10.0135 15.346 11.6538 12.505C13.294 9.66402 12.9875 6.23095 11.143 3.75403C10.9053 3.43493 10.8795 3.00532 11.0771 2.66001C11.2747 2.31471 11.6583 2.11941 12.0538 2.16268Z" fill="#202020"/>
</g>
<defs>
<clipPath id="clip0_422_1434">
<rect width="24" height="24" fill="white"/>
</clipPath>
</defs>
</svg>
