<?xml version="1.0" standalone="no"?>
<!DOCTYPE svg PUBLIC "-//W3C//DTD SVG 20010904//EN"
 "http://www.w3.org/TR/2001/REC-SVG-20010904/DTD/svg10.dtd">
<svg version="1.0" xmlns="http://www.w3.org/2000/svg"
 width="204.000000pt" height="184.000000pt" viewBox="0 0 204.000000 184.000000"
 preserveAspectRatio="xMidYMid meet">

<g transform="translate(0.000000,184.000000) scale(0.100000,-0.100000)"
fill="#000000" stroke="none">
<path d="M0 920 l0 -920 1020 0 1020 0 0 920 0 920 -1020 0 -1020 0 0 -920z
m1925 805 l25 -24 0 -791 0 -791 -25 -24 -24 -25 -886 0 -886 0 -24 25 -25 24
0 791 0 791 25 24 24 25 886 0 886 0 24 -25z"/>
<path d="M112 1717 l-22 -23 0 -785 0 -786 23 -21 23 -22 880 0 881 0 21 23
22 23 0 785 0 786 -23 21 -23 22 -880 0 -881 0 -21 -23z m1792 -13 c14 -14 16
-100 16 -794 0 -694 -2 -780 -16 -794 -14 -14 -108 -16 -889 -16 -781 0 -875
2 -889 16 -14 14 -16 100 -16 794 0 694 2 780 16 794 14 14 108 16 889 16 781
0 875 -2 889 -16z"/>
<path d="M132 1698 c-17 -17 -17 -1559 0 -1576 17 -17 1749 -17 1766 0 17 17
17 1559 0 1576 -17 17 -1749 17 -1766 0z m435 -461 c2 -2 8 -31 13 -63 11 -68
89 -314 100 -314 10 0 88 240 103 318 l13 63 130 0 129 0 -5 -38 c-8 -65 -5
-576 3 -621 l9 -43 -104 3 c-97 3 -103 4 -100 23 17 107 22 176 20 288 l-3
131 -74 -210 c-40 -115 -75 -215 -77 -221 -2 -8 -22 -13 -51 -13 l-48 0 -64
188 c-95 278 -90 272 -91 102 0 -124 6 -202 22 -270 2 -12 -15 -15 -101 -18
l-104 -3 7 23 c27 88 32 574 7 641 -6 16 -9 32 -7 35 4 7 266 6 273 -1z m974
-39 c18 -71 168 -467 210 -557 21 -46 39 -88 39 -93 0 -5 -52 -7 -116 -6
l-117 3 -1 60 c-1 33 -5 66 -10 73 -5 8 -40 12 -112 12 -120 0 -118 1 -119
-92 l0 -58 -112 0 c-62 0 -113 3 -113 6 0 3 18 42 40 87 48 100 220 558 220
587 0 19 6 20 90 20 l89 0 12 -42z"/>
<path d="M375 1200 c39 -26 96 -26 126 0 l24 19 -90 1 -90 0 30 -20z"/>
<path d="M855 1200 c22 -24 74 -26 115 -5 17 9 30 18 30 20 0 3 -37 5 -82 5
-80 0 -81 0 -63 -20z"/>
<path d="M525 1184 c-19 -14 -18 -19 60 -252 71 -212 80 -232 83 -194 2 31
-11 86 -46 195 -28 84 -55 178 -62 210 -6 31 -12 57 -13 57 -1 0 -11 -7 -22
-16z"/>
<path d="M801 1143 c-7 -32 -36 -126 -63 -210 -29 -89 -48 -165 -46 -184 2
-24 22 22 80 192 74 215 77 225 59 242 -17 17 -18 16 -30 -40z"/>
<path d="M998 1182 l-28 -17 0 -271 0 -272 25 -16 c13 -9 26 -16 27 -16 2 0 0
37 -4 83 -3 45 -6 145 -6 222 0 77 3 177 6 223 4 45 7 82 7 82 0 0 -12 -8 -27
-18z"/>
<path d="M335 891 l0 -298 23 15 c22 14 22 15 22 285 0 245 -2 271 -17 283
-10 7 -20 14 -23 14 -3 0 -5 -134 -5 -299z"/>
<path d="M420 1152 c0 -4 8 -18 17 -31 16 -23 17 -23 24 -5 13 34 10 44 -16
44 -14 0 -25 -3 -25 -8z"/>
<path d="M884 1144 c3 -9 6 -23 6 -32 0 -13 5 -11 20 8 26 33 25 40 -6 40 -20
0 -25 -4 -20 -16z"/>
<path d="M400 877 c0 -257 0 -254 45 -280 7 -3 9 72 7 221 -3 200 -6 230 -23
264 -11 21 -22 38 -24 38 -3 0 -5 -110 -5 -243z"/>
<path d="M483 1093 c-10 -27 -2 -56 71 -267 69 -198 85 -235 95 -222 11 13 -2
59 -71 268 -79 237 -85 251 -95 221z"/>
<path d="M923 1090 c-20 -33 -22 -49 -25 -267 -3 -208 -1 -230 13 -223 38 21
39 31 37 281 l-3 244 -22 -35z"/>
<path d="M851 1085 c-7 -16 -46 -128 -87 -247 -52 -150 -73 -222 -67 -233 13
-23 176 431 171 476 l-4 34 -13 -30z"/>
<path d="M368 580 l-23 -19 48 -1 c26 0 47 2 47 4 0 2 -11 11 -24 20 -23 14
-26 14 -48 -4z"/>
<path d="M930 580 l-25 -20 48 0 c51 0 57 5 30 26 -23 17 -23 17 -53 -6z"/>
<path d="M666 583 c-11 -11 -6 -23 9 -23 8 0 15 4 15 9 0 13 -16 22 -24 14z"/>
<path d="M1405 1190 c18 -36 37 -38 65 -8 30 32 25 38 -30 38 l-51 0 16 -30z"/>
<path d="M1498 1179 c-16 -25 -14 -33 73 -275 50 -137 92 -254 94 -260 2 -6
20 -21 40 -33 22 -13 35 -16 32 -9 -3 7 -24 60 -47 118 -55 137 -167 440 -171
464 -4 18 -5 18 -21 -5z"/>
<path d="M1290 968 c-46 -123 -98 -258 -116 -301 l-32 -77 30 17 c16 10 34 25
38 34 17 30 180 492 180 508 0 9 -4 22 -8 29 -6 8 -39 -68 -92 -210z"/>
<path d="M1430 1118 c0 -19 2 -20 10 -8 13 19 13 30 0 30 -5 0 -10 -10 -10
-22z"/>
<path d="M1356 962 c-27 -75 -51 -143 -54 -151 -4 -10 1 -9 20 3 36 24 104
214 92 256 -8 27 -13 18 -58 -108z"/>
<path d="M1456 1068 c-5 -24 3 -58 31 -136 31 -84 43 -107 66 -118 15 -8 27
-13 27 -11 0 10 -103 284 -109 290 -5 5 -11 -6 -15 -25z"/>
<path d="M1410 928 c-12 -35 -25 -69 -27 -75 -4 -10 10 -13 51 -13 31 0 56 2
56 5 0 6 -50 138 -54 142 -2 2 -13 -25 -26 -59z"/>
<path d="M1335 790 c-18 -20 -17 -20 106 -20 l124 0 -25 20 c-37 29 -179 29
-205 0z"/>
<path d="M1310 730 c10 -18 21 -20 124 -20 100 0 115 2 131 20 18 20 17 20
-124 20 -139 0 -141 0 -131 -20z"/>
<path d="M1255 679 l-18 -53 24 -19 24 -19 8 57 c7 46 5 61 -6 72 -13 13 -17
8 -32 -38z"/>
<path d="M1583 711 c-12 -19 -7 -121 6 -121 3 0 17 9 30 19 l24 18 -18 52
c-18 56 -24 60 -42 32z"/>
<path d="M1183 588 c-37 -18 -27 -28 27 -28 51 0 60 6 38 28 -14 14 -35 14
-65 0z"/>
<path d="M1626 585 c-28 -21 -16 -26 50 -23 l59 3 -32 18 c-38 21 -52 21 -77
2z"/>
</g>
</svg>
