<svg width="32" height="32" viewBox="0 0 32 32" fill="none" xmlns="http://www.w3.org/2000/svg">
<path d="M22.667 16.667C22.667 20.349 19.682 23.334 16 23.334C12.318 23.334 9.33299 20.349 9.33299 16.667C9.33299 12.985 12.318 9.99998 16 9.99998C19.68 10.004 22.662 12.987 22.667 16.666V16.667ZM16 8.18198C16.736 8.18198 17.333 7.58498 17.333 6.84898V4.66698C17.333 3.93098 16.736 3.33398 16 3.33398C15.264 3.33398 14.667 3.93098 14.667 4.66698V6.84898C14.667 7.58498 15.264 8.18198 16 8.18198ZM16 25.152C15.264 25.152 14.667 25.749 14.667 26.485V28.667C14.667 29.403 15.264 30 16 30C16.736 30 17.333 29.403 17.333 28.667V26.485C17.333 25.749 16.736 25.152 16 25.152ZM8.11899 10.671C8.35899 10.903 8.68499 11.045 9.04499 11.045C9.78099 11.045 10.378 10.448 10.378 9.71198C10.378 9.35198 10.235 9.02498 10.003 8.78498L8.45499 7.23598C8.21499 7.00198 7.88599 6.85698 7.52399 6.85698C6.78799 6.85698 6.19099 7.45398 6.19099 8.18998C6.19099 8.55198 6.33499 8.88098 6.56999 9.12098L8.11899 10.671ZM23.881 22.662C23.641 22.43 23.315 22.288 22.955 22.288C22.219 22.288 21.622 22.885 21.622 23.621C21.622 23.981 21.765 24.308 21.997 24.548L23.545 26.097C23.785 26.331 24.114 26.476 24.476 26.476C25.212 26.476 25.809 25.879 25.809 25.143C25.809 24.781 25.665 24.452 25.43 24.212L23.881 22.662ZM7.51499 16.667C7.51499 15.931 6.91799 15.334 6.18199 15.334H3.99999C3.26399 15.334 2.66699 15.931 2.66699 16.667C2.66699 17.403 3.26399 18 3.99999 18H6.18199C6.91799 18 7.51499 17.403 7.51499 16.667ZM28 15.333H25.818C25.082 15.333 24.485 15.93 24.485 16.666C24.485 17.402 25.082 17.999 25.818 17.999H28C28.736 17.999 29.333 17.402 29.333 16.666C29.333 15.93 28.736 15.333 28 15.333ZM8.11899 22.662L6.56999 24.211C6.32199 24.453 6.16699 24.792 6.16699 25.166C6.16699 25.902 6.76399 26.499 7.49999 26.499C7.87399 26.499 8.21199 26.345 8.45399 26.097L10.003 24.548C10.235 24.308 10.377 23.982 10.377 23.622C10.377 22.886 9.77999 22.289 9.04399 22.289C8.68399 22.289 8.35699 22.432 8.11699 22.664L8.11899 22.662ZM22.938 11.062C22.938 11.062 22.939 11.062 22.94 11.062C23.308 11.062 23.641 10.913 23.881 10.671L25.43 9.12198C25.664 8.88198 25.809 8.55298 25.809 8.19098C25.809 7.45498 25.212 6.85798 24.476 6.85798C24.114 6.85798 23.785 7.00198 23.545 7.23698L21.996 8.78598C21.755 9.02698 21.606 9.36098 21.606 9.72898C21.606 10.465 22.203 11.062 22.939 11.062H22.938Z" fill="white"/>
</svg>
